# xmcd
#
# Track frame offsets: 
#        150
#        13058
#        24453
#        34859
#        44671
#        53858
#        64350
#        75079
#        88130
#        98800
#        109010
#        122206
#        132839
#        143204
#        152730
#        164926
#        175206
#        185318
#        198039
#        207438
#        217052
#        227718
#        237650
#        249237
#        260446
#        272513
#        285497
#
# Disc length: 3962 seconds
#
# Revision: 1
# Processed by: cddbd v1.5.1PL0 Copyright (c) Steve Scherf et al.
# Submitted via: ExactAudioCopy v0.90b4
#
DISCID=890f781b
DTITLE=Waylon Jennings - The Journey - Destiny's Child - Disc 5
DYEAR=1999
DGENRE=Country
TTITLE0=Money Cannot Make The Man (1967)
TTITLE1=Yes, Virginia (1967)
TTITLE2=If The Shoe Fits (1967)
TTITLE3=Young Widow Brown (1967)
TTITLE4=John's Back In Town (1967)
TTITLE5=Down Came The World (1967)
TTITLE6=Mental Revenge (1967)
TTITLE7=The Road (1967)
TTITLE8=Woman, Don't You Ever Laugh At Me (1968)
TTITLE9=California Sunshine (1968)
TTITLE10=Love Of The Common People (1967)
TTITLE11=You've Got To Hide Your Love Away (1967)
TTITLE12=Two Streaks Of Steel (1967)
TTITLE13=Destiny's Child (1967)
TTITLE14=Shutting Out The Light (1970)
TTITLE15=Don't Waste Your Time (1967)
TTITLE16=It's All Over Now (1967)
TTITLE17=Lock, Stock And Teardrops (1968)
TTITLE18=The Chokin' Kind (1999)
TTITLE19=I Fall In Love So Easily (1968)
TTITLE20=She Loves Me (She Don't Love You) (1967)
TTITLE21=Let Me Talk To You (1968)
TTITLE22=Long Gone (1968)
TTITLE23=The Chokin' Kind (1967)
TTITLE24=Just Across The Way (1970)
TTITLE25=Listen, They're Playing My Song (1967)
TTITLE26=Yes, Virginia (1970)
EXTD=
EXTT0=
EXTT1=
EXTT2=
EXTT3=
EXTT4=
EXTT5=
EXTT6=
EXTT7=
EXTT8=
EXTT9=
EXTT10=
EXTT11=
EXTT12=
EXTT13=
EXTT14=
EXTT15=
EXTT16=
EXTT17=
EXTT18=
EXTT19=
EXTT20=
EXTT21=
EXTT22=
EXTT23=
EXTT24=
EXTT25=
EXTT26=
PLAYORDER=
